<?xml version="1.0" encoding="utf-8"?>
<!-- Generator: Adobe Illustrator 22.1.0, SVG Export Plug-In . SVG Version: 6.00 Build 0)  -->
<svg version="1.1" id="Layer_1" xmlns="http://www.w3.org/2000/svg" xmlns:xlink="http://www.w3.org/1999/xlink" x="0px" y="0px"
	 viewBox="0 0 500.1 161.4" style="enable-background:new 0 0 500.1 161.4;" xml:space="preserve">
<style type="text/css">
	.st0{fill:#F2F2F2;}
	.st1{fill:#E6E6E6;stroke:#666666;stroke-width:26.1415;stroke-miterlimit:10;}
	.st2{fill:#448AFF;}
	.st3{fill:#666666;}
	.st4{clip-path:url(#SVGID_2_);}
	.st5{fill:#161616;}
	.st6{clip-path:url(#SVGID_4_);}
	.st7{clip-path:url(#SVGID_6_);}
	.st8{clip-path:url(#SVGID_8_);}
	.st9{fill:none;stroke:#666666;stroke-width:2.924;stroke-miterlimit:10;}
	.st10{fill:none;stroke:#666666;stroke-width:3;stroke-miterlimit:10;}
	.st11{fill:none;stroke:#666666;stroke-width:8.4452;stroke-miterlimit:10;}
	.st12{fill:none;stroke:#666666;stroke-width:8.2314;stroke-miterlimit:10;}
	.st13{fill:none;stroke:#666666;stroke-width:7;stroke-miterlimit:10;}
	.st14{fill:none;stroke:#666666;stroke-width:6.1136;stroke-miterlimit:10;}
	.st15{fill:none;stroke:#666666;stroke-width:0.5;stroke-miterlimit:10;}
	.st16{fill:none;stroke:#666666;stroke-width:10;stroke-miterlimit:10;}
	.st17{fill:#448AFF;stroke:#000000;stroke-width:7;stroke-miterlimit:10;}
	.st18{fill:none;stroke:#000000;stroke-width:7;stroke-miterlimit:10;}
	.st19{fill:none;stroke:#448AFF;stroke-width:8;stroke-miterlimit:10;}
	.st20{fill:none;stroke:#666666;stroke-width:3.4973;stroke-miterlimit:10;}
	.st21{fill:none;stroke:#FF0000;stroke-width:8;stroke-miterlimit:10;}
	.st22{fill:#39B54A;}
	.st23{fill:none;stroke:#161616;stroke-width:10.7571;stroke-miterlimit:10;}
	.st24{fill:none;stroke:#666666;stroke-width:5.3744;stroke-miterlimit:10;}
	.st25{fill:none;stroke:#448AFF;stroke-width:10.7571;stroke-miterlimit:10;}
	.st26{fill:none;stroke:#161616;stroke-width:26.9287;stroke-miterlimit:10;}
	.st27{fill:none;stroke:#666666;stroke-width:13.4539;stroke-miterlimit:10;}
	.st28{fill:none;stroke:#448AFF;stroke-width:26.9287;stroke-miterlimit:10;}
	.st29{fill:none;stroke:#161616;stroke-width:9.8623;stroke-miterlimit:10;}
	.st30{fill:none;stroke:#666666;stroke-width:4.9273;stroke-miterlimit:10;}
	.st31{fill:none;stroke:#448AFF;stroke-width:9.8623;stroke-miterlimit:10;}
	.st32{fill:#1A1A1A;}
	.st33{fill:#F7931E;stroke:#000000;stroke-width:7;stroke-miterlimit:10;}
	.st34{fill:none;stroke:#ED1C24;stroke-width:8;stroke-miterlimit:10;}
	.st35{fill:none;stroke:#161616;stroke-width:8;stroke-miterlimit:10;}
	.st36{fill:none;stroke:#000000;stroke-width:8;stroke-miterlimit:10;}
	.st37{fill:#FFFFFF;}
	.st38{fill:#4A30EE;}
	.st39{fill:none;stroke:#448AFF;stroke-miterlimit:10;}
	.st40{fill:none;stroke:#448AFF;stroke-width:1.0909;stroke-miterlimit:10;}
	.st41{fill:none;stroke:#4A30EE;stroke-width:8;stroke-miterlimit:10;}
</style>
<g>
	<g>
		<g>
			<path class="st32" d="M168.6,49.4h10.2V111h-10.2V49.4z"/>
			<path class="st32" d="M216,111v-5.5c-3,3.6-7.7,6.4-14.4,6.4c-8.4,0-15.9-4.8-15.9-13.8V98c0-9.9,7.7-14.6,18.1-14.6
				c5.4,0,8.9,0.8,12.3,1.9v-0.8c0-6.2-3.9-9.5-11-9.5c-5,0-8.7,1.1-12.7,2.8l-2.8-8.2c4.9-2.2,9.7-3.7,17-3.7
				c13.2,0,19.6,6.9,19.6,18.8V111H216z M216.3,92.4c-2.6-1-6.2-1.8-10.2-1.8c-6.4,0-10.2,2.6-10.2,6.9v0.2c0,4.2,3.8,6.6,8.6,6.6
				c6.8,0,11.8-3.8,11.8-9.4V92.4z"/>
			<path class="st32" d="M237.1,98.7V75.2h-5.7v-8.8h5.7V54.2h10.2v12.2h12v8.8h-12v21.9c0,4,2,5.6,5.5,5.6c2.3,0,4.3-0.5,6.3-1.5
				v8.4c-2.5,1.4-5.4,2.3-9.2,2.3C242.4,111.8,237.1,108.5,237.1,98.7z"/>
			<path class="st32" d="M293.5,111v-5.5c-3,3.6-7.7,6.4-14.4,6.4c-8.4,0-15.9-4.8-15.9-13.8V98c0-9.9,7.7-14.6,18.1-14.6
				c5.4,0,8.9,0.8,12.3,1.9v-0.8c0-6.2-3.9-9.5-11-9.5c-5,0-8.7,1.1-12.7,2.8l-2.8-8.2c4.9-2.2,9.7-3.7,17-3.7
				c13.2,0,19.6,6.9,19.6,18.8V111H293.5z M293.7,92.4c-2.6-1-6.2-1.8-10.2-1.8c-6.4,0-10.2,2.6-10.2,6.9v0.2c0,4.2,3.8,6.6,8.6,6.6
				c6.8,0,11.8-3.8,11.8-9.4V92.4z"/>
			<path class="st32" d="M312.4,66.5h10.2v6.8c2.9-4,6.8-7.7,13.6-7.7c6.4,0,10.9,3.1,13.3,7.9c3.6-4.7,8.4-7.9,15.1-7.9
				c9.7,0,15.6,6.2,15.6,17.1V111H370V85.7c0-7.1-3.3-10.9-9-10.9c-5.6,0-9.5,3.9-9.5,11.1V111h-10.2V85.6c0-6.9-3.4-10.8-9-10.8
				c-5.7,0-9.5,4.2-9.5,11.1V111h-10.2V66.5z"/>
			<path class="st38" d="M386.8,88.9v-0.2c0-12.7,9-23.2,21.8-23.2c14.2,0,21.4,11.1,21.4,24c0,0.9-0.1,1.9-0.2,2.9H397
				c1.1,7.3,6.2,11.3,12.8,11.3c5,0,8.5-1.9,12.1-5.3l6,5.3c-4.2,5.1-10,8.4-18.2,8.4C396.7,112,386.8,102.7,386.8,88.9z
				 M419.8,85.6c-0.7-6.6-4.6-11.7-11.3-11.7c-6.2,0-10.6,4.8-11.6,11.7H419.8z"/>
			<path class="st38" d="M449.3,88.4l-15.8-22h11.1L455,81.1l10.3-14.7h10.9l-15.8,21.7l16.5,22.9h-11.1l-11-15.6L443.8,111h-10.9
				L449.3,88.4z"/>
		</g>
	</g>
	<g>
		<polygon class="st2" points="85.7,144 23.2,81.6 73.7,31.1 121.9,79.2 99.4,101.7 92.4,94.7 107.9,79.2 73.7,45 37.2,81.6 
			92.6,137 		"/>
		<polygon class="st38" points="87.6,17.4 149.9,79.7 99.4,130.2 51.3,82.1 73.7,59.6 80.7,66.6 65.2,82.1 99.4,116.3 136,79.7 
			80.7,24.4 		"/>
	</g>
</g>
</svg>
